<?xml version="1.0" encoding="UTF-8"?>
<svg width="842px" height="852px" viewBox="0 0 842 852" version="1.1" xmlns="http://www.w3.org/2000/svg" xmlns:xlink="http://www.w3.org/1999/xlink">
    <title>Layer 2</title>
    <g id="app-icon" stroke="none" stroke-width="1" fill="none" fill-rule="evenodd">
        <g id="Frame" transform="translate(-91, -86)" fill="#000000">
            <path d="M828.018626,86.4422208 C850.346892,87.328332 864.928477,90.0357477 878.39905,96.8993476 C897.215259,106.486685 912.513315,121.784741 922.100652,140.60095 C929.934193,155.97514 932.333788,172.110487 932.849104,201.580934 C932.918374,205.542388 932.931471,237.985431 932.907601,292.692394 C932.902086,305.332583 932.894721,318.697572 932.885604,333.143072 C932.879498,342.816786 932.852925,380.962873 932.852925,383.096116 C932.852925,396.903235 921.660044,408.096116 907.852925,408.096116 C894.045807,408.096116 882.852925,396.903235 882.852925,383.096116 C882.852925,380.94253 882.879529,342.752429 882.885614,333.111515 C882.894729,318.669035 882.902092,305.307187 882.907606,292.670578 C882.930834,239.43517 882.917303,205.918261 882.856746,202.455094 C882.466159,180.117748 880.960482,169.993283 877.550326,163.300475 C872.756657,153.89237 865.10763,146.243343 855.699525,141.449674 C850.027014,138.559385 841.777093,137.027592 826.035905,136.402893 C821.862497,136.237269 787.220809,136.199073 733.299858,136.26681 C720.862718,136.282434 707.738758,136.302951 693.253683,136.328616 C693.578372,136.328041 643.689621,136.422557 640.179209,136.422557 C626.37209,136.422557 615.179209,125.229676 615.179209,111.422557 C615.179209,97.6154384 626.37209,86.4225571 640.179209,86.4225571 C643.63433,86.4225571 693.364301,86.3283418 693.16509,86.3286948 C707.658132,86.3030152 720.790361,86.2824858 733.237046,86.2668499 C789.853199,86.1957267 822.720631,86.2319665 828.018626,86.4422208 Z M932.791628,644.295894 C932.791628,647.751015 932.885844,697.480986 932.885491,697.281775 C932.91117,711.774817 932.9317,724.907045 932.947336,737.353731 C933.018459,793.969883 932.982219,826.837316 932.771965,832.135311 C931.885853,854.463576 929.178438,869.045161 922.314838,882.515735 C912.7275,901.331944 897.429445,916.63 878.613235,926.217337 C863.239046,934.050878 847.103699,936.450473 817.633252,936.965789 C813.671798,937.035058 781.228754,937.048155 726.521791,937.024286 C713.881603,937.01877 700.516614,937.011406 686.071113,937.002288 C676.3974,936.996183 638.251313,936.96961 636.118069,936.96961 C622.310951,936.96961 611.118069,925.776729 611.118069,911.96961 C611.118069,898.162491 622.310951,886.96961 636.118069,886.96961 C638.271656,886.96961 676.461757,886.996213 686.102671,887.002298 C700.54515,887.011414 713.906998,887.018777 726.543607,887.02429 C779.779016,887.047518 813.295924,887.033988 816.759092,886.973431 C839.096438,886.582843 849.220902,885.077167 855.91371,881.667011 C865.321815,876.873342 872.970843,869.224314 877.764512,859.81621 C880.6548,854.143699 882.186593,845.893778 882.811292,830.15259 C882.976916,825.979182 883.015112,791.337494 882.947375,737.416542 C882.931751,724.979403 882.911235,711.855443 882.885569,697.370368 C882.886144,697.695057 882.791628,647.806305 882.791628,644.295894 C882.791628,630.488775 893.98451,619.295894 907.791628,619.295894 C921.598747,619.295894 932.791628,630.488775 932.791628,644.295894 Z M142.105938,640.234754 C142.105938,642.38834 142.079334,680.578441 142.073249,690.219355 C142.064134,704.661835 142.056771,718.023683 142.051257,730.660292 C142.028029,783.8957 142.04156,817.412609 142.102116,820.875776 C142.492704,843.213122 143.998381,853.337587 147.408537,860.030395 C152.202205,869.4385 159.851233,877.087527 169.259338,881.881196 C174.931849,884.771485 183.18177,886.303278 198.922958,886.927977 C203.096366,887.093601 237.738053,887.131797 291.659005,887.06406 C304.096145,887.048436 317.220105,887.027919 331.70518,887.002254 C331.380491,887.002829 381.269242,886.908313 384.779654,886.908313 C398.586773,886.908313 409.779654,898.101194 409.779654,911.908313 C409.779654,925.715432 398.586773,936.908313 384.779654,936.908313 C381.324533,936.908313 331.594562,937.002528 331.793772,937.002175 C317.30073,937.027855 304.168502,937.048384 291.721817,937.06402 C235.105664,937.135143 202.238232,937.098904 196.940237,936.888649 C174.611971,936.002538 160.030386,933.295122 146.559813,926.431522 C127.743604,916.844185 112.445548,901.546129 102.858211,882.72992 C95.0246695,867.35573 92.625075,851.220383 92.1097586,821.749936 C92.0404892,817.788482 92.027392,785.345439 92.051262,730.638476 C92.0567772,717.998287 92.064142,704.633298 92.0732593,690.187798 C92.0793649,680.514084 92.1059376,642.367997 92.1059376,640.234754 C92.1059376,626.427635 103.298819,615.234754 117.105938,615.234754 C130.913056,615.234754 142.105938,626.427635 142.105938,640.234754 Z M298.176155,86.1679465 C310.816343,86.1734618 324.181332,86.1808266 338.626833,86.1899439 C348.300546,86.1960494 386.446633,86.2226221 388.579876,86.2226221 C402.386995,86.2226221 413.579876,97.4155034 413.579876,111.222622 C413.579876,125.029741 402.386995,136.222622 388.579876,136.222622 C386.42629,136.222622 348.236189,136.196019 338.595275,136.189934 C324.152796,136.180819 310.790948,136.173455 298.154338,136.167942 C244.91893,136.144714 211.402022,136.158245 207.938854,136.218801 C185.601508,136.609389 175.477043,138.115065 168.784235,141.525221 C159.376131,146.31889 151.727103,153.967918 146.933434,163.376023 C144.043146,169.048534 142.511353,177.298454 141.886654,193.039642 C141.72103,197.213051 141.682834,231.854738 141.750571,285.77569 C141.766195,298.212829 141.786711,311.336789 141.812377,325.821865 C141.811801,325.497175 141.906318,375.385927 141.906318,378.896339 C141.906318,392.703457 130.713436,403.896339 116.906318,403.896339 C103.099199,403.896339 91.9063175,392.703457 91.9063175,378.896339 C91.9063175,375.441217 91.8121022,325.711247 91.8124552,325.910457 C91.7867757,311.417415 91.7662462,298.285187 91.7506103,285.838501 C91.6794872,229.222349 91.7157269,196.354917 91.9259812,191.056921 C92.8120925,168.728656 95.5195081,154.147071 102.383108,140.676498 C111.970445,121.860288 127.268501,106.562233 146.08471,96.9748951 C161.4589,89.1413541 177.594247,86.7417596 207.064694,86.2264432 C211.026148,86.1571737 243.469192,86.1440766 298.176155,86.1679465 Z" id="Layer-2"></path>
        </g>
    </g>
</svg>